<?xml version="1.0" encoding="UTF-8" standalone="no"?>
<!-- Created with Inkscape (http://www.inkscape.org/) -->

<svg
   width="79.320389mm"
   height="81.101486mm"
   viewBox="0 0 79.320389 81.101485"
   version="1.1"
   id="svg1"
   xml:space="preserve"
   xmlns:xlink="http://www.w3.org/1999/xlink"
   xmlns="http://www.w3.org/2000/svg"
   xmlns:svg="http://www.w3.org/2000/svg"><defs
     id="defs1"><linearGradient
       id="linearGradient520"><stop
         style="stop-color:#e9be8c;stop-opacity:1;"
         offset="0"
         id="stop517" /><stop
         style="stop-color:#ffffff;stop-opacity:1;"
         offset="0.43537417"
         id="stop518" /><stop
         style="stop-color:#d9aa82;stop-opacity:1;"
         offset="0.43537417"
         id="stop519" /><stop
         style="stop-color:#fff4e7;stop-opacity:1;"
         offset="0.56802714"
         id="stop520" /></linearGradient><linearGradient
       id="linearGradient9"><stop
         style="stop-color:#a40000;stop-opacity:0.99027901;"
         offset="0"
         id="stop9" /><stop
         style="stop-color:#3f0202;stop-opacity:1;"
         offset="1"
         id="stop10" /></linearGradient><linearGradient
       id="linearGradient12"><stop
         style="stop-color:#fa0b0b;stop-opacity:1;"
         offset="0"
         id="stop16" /><stop
         style="stop-color:#390303;stop-opacity:1;"
         offset="0.1122449"
         id="stop15" /><stop
         style="stop-color:#920303;stop-opacity:1;"
         offset="0.41326532"
         id="stop14" /><stop
         style="stop-color:#080808;stop-opacity:1;"
         offset="0.85204077"
         id="stop12" /><stop
         style="stop-color:#c60707;stop-opacity:1;"
         offset="1"
         id="stop13" /></linearGradient><linearGradient
       id="swatch231"><stop
         style="stop-color:#008000;stop-opacity:1;"
         offset="0"
         id="stop231" /></linearGradient><linearGradient
       id="swatch229"><stop
         style="stop-color:#005b80;stop-opacity:1;"
         offset="0"
         id="stop229" /></linearGradient><linearGradient
       xlink:href="#linearGradient12"
       id="linearGradient13"
       x1="3.6499468e-06"
       y1="10.129877"
       x2="20.922548"
       y2="10.129877"
       gradientUnits="userSpaceOnUse"
       gradientTransform="matrix(0.80779648,0,0,0.82670982,-120.81757,53.475269)" /><filter
       style="color-interpolation-filters:sRGB"
       id="filter37"
       x="-0.043042535"
       y="-0.043022096"
       width="1.0860851"
       height="1.1099454"><feFlood
         result="flood"
         in="SourceGraphic"
         flood-opacity="0.498039"
         flood-color="rgb(0,0,0)"
         id="feFlood36" /><feGaussianBlur
         result="blur"
         in="SourceGraphic"
         stdDeviation="0.300000"
         id="feGaussianBlur36" /><feOffset
         result="offset"
         in="blur"
         dx="0.000000"
         dy="0.400000"
         id="feOffset36" /><feComposite
         result="comp1"
         operator="in"
         in="flood"
         in2="offset"
         id="feComposite36" /><feComposite
         result="fbSourceGraphic"
         operator="over"
         in="SourceGraphic"
         in2="comp1"
         id="feComposite37" /><feColorMatrix
         result="fbSourceGraphicAlpha"
         in="fbSourceGraphic"
         values="0 0 0 -1 0 0 0 0 -1 0 0 0 0 -1 0 0 0 0 1 0"
         id="feColorMatrix497" /><feColorMatrix
         id="feColorMatrix498"
         type="hueRotate"
         values="177"
         result="color1"
         in="fbSourceGraphic" /><feColorMatrix
         id="feColorMatrix499"
         type="saturate"
         values="0.671733"
         result="color2" /></filter><filter
       style="color-interpolation-filters:sRGB"
       id="filter503"
       x="0"
       y="0"
       width="1"
       height="1"><feColorMatrix
         type="hueRotate"
         values="177"
         result="color1"
         id="feColorMatrix502" /><feColorMatrix
         type="saturate"
         values="0.671733"
         result="color2"
         id="feColorMatrix503" /></filter><filter
       style="color-interpolation-filters:sRGB"
       id="filter151-4"
       x="-0.1034531"
       y="-0.20147534"
       width="1.2069062"
       height="1.4029507"><feGaussianBlur
         stdDeviation="0.435 0.648"
         result="result3"
         id="feGaussianBlur149-49" /><feColorMatrix
         values="1 0 0 0 0 0 1 0 0 0 0 0 1 0 0 0 0 0 50 0 "
         result="result7"
         id="feColorMatrix149-15" /><feComposite
         operator="in"
         in2="SourceGraphic"
         result="result9"
         id="feComposite149-5" /><feComposite
         in2="result7"
         operator="arithmetic"
         in="result9"
         k1="0.5"
         k3="0.5"
         result="result1"
         id="feComposite150-5"
         k2="0"
         k4="0" /><feBlend
         in2="result1"
         result="result5"
         mode="screen"
         in="SourceGraphic"
         id="feBlend150-82" /><feBlend
         in2="result5"
         mode="darken"
         in="result5"
         result="result6"
         id="feBlend151-9" /><feComposite
         in2="SourceGraphic"
         operator="in"
         result="result8"
         id="feComposite151-8" /></filter><linearGradient
       xlink:href="#linearGradient520"
       id="linearGradient517"
       gradientUnits="userSpaceOnUse"
       gradientTransform="translate(-0.09588853,-0.44001049)"
       x1="8.2137127"
       y1="5.602448"
       x2="13.259479"
       y2="14.341971" /><radialGradient
       xlink:href="#linearGradient9"
       id="radialGradient10-1"
       cx="10.607275"
       cy="9.5319233"
       fx="10.607275"
       fy="9.5319233"
       r="5.7201204"
       gradientTransform="matrix(1.1042058,0,0,1.1155158,-1.0769555,-1.0544537)"
       gradientUnits="userSpaceOnUse" /><filter
       style="color-interpolation-filters:sRGB"
       id="filter505-6"
       x="-0.021321435"
       y="-0.021105262"
       width="1.0426429"
       height="1.0422105"><feColorMatrix
         type="hueRotate"
         values="177"
         result="color1"
         id="feColorMatrix504-0" /><feColorMatrix
         type="saturate"
         values="0.671733"
         result="color2"
         id="feColorMatrix505-0" /></filter></defs><path
     d="m -112.83645,70.174101 c -0.12929,-0.02017 -0.41584,-0.100231 -0.63678,-0.177818 l -0.4017,-0.141061 -0.2721,-0.16111 c -0.14965,-0.08861 -0.39002,-0.260852 -0.53415,-0.382725 -0.51822,-0.438214 -0.92643,-0.642659 -1.815,-0.909008 -0.90354,-0.27083 -1.30275,-0.462214 -1.77777,-0.852264 l -0.28388,-0.233091 -0.2337,-0.300848 -0.2337,-0.300848 -0.17942,-0.374301 -0.17943,-0.374293 -0.0917,-0.374284 -0.0917,-0.374294 -0.0306,-0.76731 -0.0306,-0.767302 -0.0954,-0.336852 -0.0954,-0.336876 -0.35995,-0.748586 -0.35994,-0.748586 -0.0764,-0.33686 -0.0764,-0.336867 0.0154,-0.561436 0.0154,-0.561435 0.12838,-0.384114 0.12838,-0.384122 0.1736,-0.297186 c 0.2339,-0.400442 0.52426,-0.724653 0.96726,-1.080039 0.74437,-0.597149 1.08131,-1.051219 1.46076,-1.968553 0.16801,-0.406146 0.38902,-0.737582 0.71347,-1.069944 l 0.27404,-0.280718 0.31053,-0.194897 c 0.38078,-0.238985 0.79736,-0.409238 1.22718,-0.501531 l 0.32549,-0.06994 0.37712,-4.88e-4 0.37712,-4.96e-4 0.54511,0.121171 0.5451,0.121171 0.61482,-4.96e-4 0.61482,-4.88e-4 0.61482,-0.125057 0.61482,-0.125048 0.50632,0.01893 0.50632,0.01885 0.28932,0.07928 c 1.10664,0.303237 1.89562,1.03371 2.41395,2.234944 0.35601,0.825032 0.68391,1.236593 1.38369,1.736736 l 0.37785,0.270044 0.25046,0.272889 0.25046,0.272881 0.18923,0.331237 c 0.2169,0.379683 0.33311,0.678696 0.44072,1.133982 l 0.0757,0.320135 -0.002,0.449151 -0.002,0.449152 -0.0935,0.374301 -0.0935,0.374293 -0.28825,0.59886 -0.28825,0.59887 -0.0981,0.336867 -0.0981,0.336859 -0.007,0.86087 -0.007,0.860877 -0.0952,0.372334 -0.0952,0.372326 -0.14442,0.301732 -0.14443,0.301724 -0.23564,0.308412 -0.23563,0.308405 -0.29832,0.245483 -0.29832,0.245483 -0.36166,0.185216 -0.36165,0.185232 -0.73802,0.207001 c -1.04555,0.29325 -1.25704,0.39434 -2.11908,1.012818 -0.47069,0.337704 -0.95301,0.557385 -1.48093,0.674513 l -0.25502,0.05654 -0.39783,0.01414 -0.39782,0.01422 z m 1.88797,-2.031674 c 0.23279,-0.05175 0.59897,-0.154842 0.81373,-0.229106 l 0.39047,-0.134984 0.46266,-0.241127 c 0.76611,-0.399259 1.28811,-0.798395 1.87947,-1.437086 l 0.38757,-0.418588 0.29563,-0.456269 c 0.62311,-0.961679 0.95291,-1.948977 1.04526,-3.129147 l 0.0393,-0.501971 -0.0404,-0.471183 -0.0404,-0.471192 -0.0919,-0.427483 c -0.6296,-2.929298 -3.05968,-5.129627 -5.95965,-5.396241 l -0.40058,-0.03679 -0.37974,0.02282 c -3.35608,0.202056 -5.91539,2.63484 -6.25945,5.949954 l -0.0427,0.411727 0.0219,0.486584 c 0.14978,3.334734 2.62222,6.120358 5.82825,6.566549 l 0.25316,0.03513 0.68715,-0.01381 0.68715,-0.01381 z m -1.70714,-0.46022 c -2.90322,-0.298327 -5.20426,-2.646323 -5.53674,-5.649735 l -0.041,-0.370111 0.0216,-0.486577 c 0.12532,-2.824801 2.03205,-5.096095 4.79663,-5.713705 l 0.37974,-0.08479 0.7414,-8.27e-4 0.7414,-8.27e-4 0.30741,0.06804 c 1.69221,0.374797 2.96732,1.228417 3.93849,2.636618 l 0.25049,0.363223 0.22099,0.457022 0.22098,0.457013 0.12388,0.395548 0.12387,0.395539 0.078,0.476177 0.078,0.476176 -0.0164,0.692444 -0.0164,0.692444 -0.0994,0.449153 c -0.11754,0.531351 -0.27979,0.983173 -0.53298,1.484257 l -0.18464,0.365398 -0.27948,0.385198 c -1.26313,1.740885 -3.32779,2.716675 -5.31591,2.512388 z m 0.88985,-0.462685 0.46636,-0.03852 0.36952,-0.09145 c 1.85807,-0.459894 3.35626,-1.849907 3.96774,-3.681259 l 0.12941,-0.387562 0.0774,-0.454599 0.0774,-0.454592 -1.8e-4,-0.524011 -1.8e-4,-0.52401 -0.0621,-0.374293 c -0.45325,-2.733237 -2.67073,-4.751111 -5.35477,-4.872754 l -0.47016,-0.02125 -0.39204,0.04415 c -0.77757,0.08752 -1.27093,0.26224 -1.98387,0.702471 l -0.46956,0.289952 -0.37841,0.313753 -0.37841,0.313745 -0.27451,0.32369 c -0.59837,0.705555 -0.9962,1.522097 -1.20628,2.475872 l -0.0783,0.355576 -0.0192,0.626737 -0.0192,0.62672 0.0436,0.290292 c 0.40799,2.716775 2.51036,4.800837 5.10373,5.059283 0.16809,0.01669 0.32359,0.03281 0.34557,0.03555 0.022,0.0025 0.24982,-0.01223 0.50632,-0.0334 z m -0.47035,-2.21421 c -0.008,-0.02703 -0.0818,-0.259703 -0.1647,-0.517032 l -0.15073,-0.467868 -0.21457,-0.449152 -0.21458,-0.449151 -0.22624,-0.3245 c -0.12444,-0.178479 -0.33597,-0.460611 -0.47007,-0.626953 -0.1341,-0.166342 -0.2631,-0.334405 -0.28667,-0.373467 l -0.0429,-0.07093 0.2053,-0.234794 c 0.22979,-0.262803 0.22525,-0.249865 0.15173,-0.431973 l -0.0536,-0.13267 -0.0459,0.01224 c -0.0252,0.0066 -0.22171,0.199361 -0.43662,0.42807 l -0.39073,0.41581 0.002,1.041317 0.002,1.041307 0.0532,0.08401 c 0.0586,0.09253 0.0995,0.109233 0.35563,0.145294 l 0.17396,0.02456 -0.0139,0.04315 -0.0139,0.04315 -1.00438,8.27e-4 -1.00437,8.28e-4 -0.0167,-0.02795 c -0.0211,-0.0353 0.11101,-0.0918 0.2808,-0.120163 l 0.13066,-0.02183 0.0683,-0.07804 0.0682,-0.07804 V 61.490858 59.10036 l -0.0777,-0.08044 -0.0777,-0.08044 -0.18142,-0.04233 -0.18142,-0.04233 0.006,-0.03737 0.006,-0.03737 h 1.00359 1.0036 l -0.0117,0.03638 c -0.006,0.02001 -0.10756,0.0563 -0.22468,0.0806 l -0.21294,0.04415 -0.0588,0.07507 -0.0588,0.07515 -0.0236,1.060735 c -0.0225,1.010355 -0.014,1.229169 0.0474,1.229169 0.0846,0 2.27208,-2.448764 2.30387,-2.579054 l 0.022,-0.09001 -0.0357,-0.05977 -0.0357,-0.05977 -0.23181,-0.06027 -0.23181,-0.06027 v -0.052 -0.05208 l 0.34357,0.01786 c 0.45434,0.02356 0.92826,0.02389 1.28388,8.27e-4 l 0.28933,-0.01868 v 0.05241 0.05241 l -0.25316,0.06242 c -0.59832,0.147434 -0.65602,0.1933 -1.87156,1.487481 l -0.53344,0.56795 v 0.09089 0.0909 l 0.23346,0.341365 c 0.12841,0.187754 0.38066,0.54462 0.56057,0.793038 l 0.32711,0.451648 v 0.177826 0.177817 l -0.12248,0.210497 -0.12247,0.210488 0.0886,0.08611 c 0.13047,0.12686 0.22901,0.307446 0.28817,0.528128 l 0.0524,0.195566 0.0215,0.527888 0.0215,0.527886 -0.0415,0.02662 -0.0415,0.02662 z m 0.209,-0.05399 c -0.0901,-0.371637 0.0341,-1.369335 0.20264,-1.6276 l 0.10716,-0.164193 -0.12693,-0.112284 c -0.0698,-0.06175 -0.15875,-0.162819 -0.19766,-0.224575 l -0.0708,-0.112284 -2.4e-4,-1.560035 -2.4e-4,-1.560043 0.28839,-0.238795 0.28838,-0.238804 0.26901,-0.139457 0.269,-0.13945 0.26538,-0.05861 0.26538,-0.05861 0.32549,0.02141 c 0.54795,0.03604 0.93386,0.173585 1.2206,0.434808 l 0.15614,0.142236 0.10728,0.200452 0.10728,0.200453 v 0.374297 0.374293 l -0.12493,0.238489 -0.12492,0.238489 -0.18249,0.140946 c -0.27149,0.209695 -0.56125,0.342473 -0.93292,0.427483 -0.14653,0.03348 -0.12171,0.08251 0.0763,0.150569 l 0.17574,0.06043 0.1512,0.133936 0.1512,0.133943 0.0896,0.183075 c 0.0493,0.100698 0.17294,0.448302 0.27475,0.772462 0.2111,0.672165 0.34734,0.977874 0.48616,1.090877 l 0.0966,0.0787 h 0.0967 c 0.0532,0 0.1283,-0.02422 0.16691,-0.05374 l 0.0702,-0.05373 -0.13432,-0.05853 c -0.14065,-0.06134 -0.20926,-0.152445 -0.20926,-0.278039 v -0.07457 l 0.0953,-0.07763 0.0953,-0.07763 h 0.11682 0.11683 l 0.0912,0.07432 c 0.0502,0.04075 0.10191,0.118334 0.11498,0.172212 l 0.0237,0.09792 -0.0402,0.126015 -0.0402,0.126007 -0.10773,0.0938 c -0.0592,0.0515 -0.17616,0.113359 -0.25979,0.137243 l -0.15206,0.04349 -0.24559,-0.04257 -0.24559,-0.04257 -0.17656,-0.09261 -0.17656,-0.09259 -0.17955,-0.188779 -0.17955,-0.18878 -0.12926,-0.254576 c -0.0711,-0.140037 -0.2116,-0.48074 -0.31223,-0.757151 -0.10062,-0.276425 -0.22796,-0.578166 -0.28295,-0.670568 l -0.1,-0.167979 -0.14339,-0.084 -0.14338,-0.08409 -0.20537,-5.54e-4 -0.20537,-5.37e-4 -0.0568,0.05886 -0.0568,0.05878 v 0.824387 0.824386 l -0.1485,0.17418 c -0.24607,0.288604 -0.47968,0.845575 -0.55581,1.325125 -0.0259,0.163242 -0.0796,0.18305 -0.11382,0.04192 z m 1.33067,-3.495006 c 0.13272,-0.01984 0.33421,-0.07209 0.44777,-0.116062 l 0.20645,-0.07994 0.13883,-0.129793 0.13882,-0.129802 0.0913,-0.1997 0.0913,-0.199692 0.0337,-0.246144 0.0337,-0.246137 -0.0335,-0.24459 -0.0335,-0.244615 -0.0889,-0.181637 -0.0889,-0.181636 -0.14763,-0.130769 -0.14762,-0.130786 -0.16241,-0.04704 -0.1624,-0.04704 -0.21627,0.02348 -0.21626,0.0234 -0.14183,0.0749 c -0.078,0.04109 -0.16731,0.11254 -0.19847,0.158572 l -0.0566,0.08366 v 1.078331 1.078327 l 0.0814,0.0339 c 0.10579,0.04398 0.14326,0.04415 0.43118,8.27e-4 z m -0.37853,2.780268 -0.39039,-0.01298 -0.0196,-0.05274 -0.0196,-0.05275 0.11334,-0.170492 0.11334,-0.170493 h 0.0618 0.0618 l 0.0456,0.106546 0.0456,0.106556 0.0989,0.04828 c 0.0544,0.02662 0.19652,0.05861 0.31587,0.07126 l 0.21699,0.02282 v 0.05613 0.05605 l -0.12658,0.0016 c -0.0696,8.26e-4 -0.30226,-0.0033 -0.51697,-0.01067 z"
     style="fill:#af7474;fill-opacity:1;stroke-width:0.531562;filter:url(#filter37)"
     id="path1-1"
     transform="matrix(4.3660251,0,0,4.3660251,530.0886,-230.33084)" /><path
     style="fill:url(#linearGradient13);fill-opacity:1;stroke:none;stroke-width:0.534432;stroke-opacity:1;filter:url(#filter503)"
     d="m -113.07242,70.149101 c -0.59282,-0.130332 -1.18128,-0.417894 -1.65162,-0.807092 -0.56692,-0.469117 -0.94348,-0.653432 -1.94345,-0.951188 l -0.57704,-0.171832 -0.33608,-0.162027 c -0.79459,-0.383047 -1.31776,-0.891755 -1.70277,-1.655685 l -0.17109,-0.339463 -0.0919,-0.350549 c -0.0984,-0.375335 -0.11557,-0.536569 -0.14609,-1.376241 l -0.0196,-0.538874 -0.072,-0.289191 c -0.0895,-0.359107 -0.2182,-0.670892 -0.52767,-1.278069 -0.28339,-0.556038 -0.4024,-0.894154 -0.46219,-1.313197 l -0.0436,-0.305304 0.0227,-0.377153 0.0227,-0.37717 0.0756,-0.294995 c 0.20211,-0.789053 0.63956,-1.417543 1.39038,-1.997529 0.69209,-0.534633 1.05739,-1.031957 1.43891,-1.958939 0.44557,-1.082601 1.46632,-1.845886 2.73337,-2.043916 l 0.37422,-0.05853 0.29234,0.02108 c 0.16078,0.01157 0.53898,0.07498 0.84044,0.140789 l 0.54809,0.119674 0.54811,-0.0033 0.54811,-0.0033 0.4933,-0.09886 c 0.27132,-0.0544 0.65382,-0.118428 0.85001,-0.142344 l 0.35671,-0.04348 0.37511,0.04299 0.37511,0.04299 0.30959,0.09956 c 1.08233,0.347929 1.77901,1.003518 2.27578,2.141575 0.22989,0.526655 0.46952,0.916151 0.75012,1.219207 l 0.20694,0.223517 0.42022,0.303337 c 0.23112,0.166821 0.51407,0.398432 0.62878,0.514651 l 0.20856,0.211316 0.22158,0.350963 0.22158,0.350963 0.11053,0.293507 c 0.0608,0.161423 0.14469,0.464743 0.18644,0.674041 l 0.0759,0.380526 -0.0188,0.411917 -0.0188,0.411916 -0.0835,0.337 -0.0836,0.337025 -0.24218,0.486809 c -0.28296,0.568786 -0.37261,0.792352 -0.47704,1.189644 l -0.0765,0.29092 -0.009,0.869913 -0.009,0.869922 -0.0813,0.294846 c -0.11015,0.399474 -0.25547,0.717038 -0.48132,1.051848 l -0.18914,0.28037 -0.26104,0.253691 c -0.31344,0.304618 -0.58369,0.49263 -0.98473,0.685096 l -0.29933,0.143641 -0.76735,0.209752 -0.76736,0.209745 -0.3654,0.185529 c -0.20098,0.102037 -0.52985,0.304883 -0.73081,0.450748 -0.6403,0.464702 -1.10261,0.689616 -1.69206,0.823196 l -0.31768,0.07201 -0.47503,-0.0016 -0.47503,-0.0016 z m 1.10013,-0.31234 c 0.16649,-0.01959 0.43404,-0.07201 0.59456,-0.116367 l 0.29185,-0.08069 0.13992,-0.09865 c 0.0769,-0.05431 0.19548,-0.144244 0.2634,-0.199973 l 0.12348,-0.101285 -0.44824,0.147104 -0.44825,0.147114 -0.29913,0.03845 c -0.77396,0.09945 -1.35863,-0.0016 -2.1821,-0.377319 -0.35853,-0.163565 -0.39694,-0.159124 -0.19872,0.02298 0.48168,0.442463 1.40867,0.707589 2.16323,0.618676 z m 0.90482,-1.632189 0.47671,-0.08917 0.43681,-0.153867 c 2.48694,-0.87604 4.22177,-3.020831 4.51327,-5.579821 l 0.0446,-0.391207 -0.023,-0.599134 -0.023,-0.599149 -0.07,-0.355742 c -0.0385,-0.195665 -0.13032,-0.54953 -0.20404,-0.786366 l -0.13404,-0.430641 -0.25261,-0.52425 -0.25262,-0.524258 -0.24716,-0.352476 c -1.14784,-1.636927 -2.75586,-2.660774 -4.61846,-2.940632 l -0.38837,-0.05828 -0.48861,5.37e-4 -0.48861,5.54e-4 -0.36541,0.05349 c -1.6264,0.237879 -2.98806,0.942831 -4.08314,2.113981 l -0.39091,0.418059 -0.25934,0.397449 c -0.65333,1.001262 -0.96056,1.934733 -1.0575,3.213099 l -0.0369,0.4868 0.0345,0.393192 c 0.29712,3.385733 2.88479,6.089668 6.12453,6.399694 l 0.36304,0.03472 0.45676,-0.01885 0.45676,-0.01885 z m -1.48158,-0.494233 c -2.81171,-0.173989 -5.2858,-2.508361 -5.68514,-5.364073 l -0.0602,-0.430633 0.0174,-0.674034 0.0174,-0.674042 0.082,-0.392083 c 0.55538,-2.654499 2.85431,-4.611123 5.61219,-4.776531 l 0.39996,-0.02398 0.38368,0.04291 c 2.74445,0.306899 4.93793,2.342184 5.47982,5.084621 l 0.0759,0.384271 0.0226,0.45827 0.0226,0.45827 -0.0451,0.449359 -0.0451,0.449358 -0.10161,0.411908 c -0.18125,0.734813 -0.46392,1.356606 -0.91467,2.011964 l -0.23752,0.345325 -0.34714,0.361363 -0.34713,0.361355 -0.40195,0.304659 -0.40194,0.304651 -0.45856,0.238679 -0.45854,0.238663 -0.40565,0.134398 c -0.22311,0.07391 -0.59228,0.16726 -0.82038,0.207447 l -0.41472,0.073 -0.40195,0.01248 c -0.22107,0.0066 -0.47594,0.0084 -0.56638,0.0016 z m 1.43088,-0.532285 c 0.74757,-0.161473 1.38339,-0.440579 2.06023,-0.904387 l 0.39599,-0.271351 0.42537,-0.433147 c 0.50432,-0.513552 0.701,-0.788912 1.00985,-1.413904 l 0.2302,-0.465818 0.11068,-0.367531 c 0.0609,-0.202147 0.14201,-0.550705 0.18031,-0.774569 l 0.0696,-0.407039 -0.0105,-0.617868 -0.0105,-0.617858 -0.0774,-0.368497 c -0.0427,-0.202677 -0.12786,-0.522837 -0.18942,-0.711483 l -0.11192,-0.342994 -0.25421,-0.502152 c -0.60866,-1.202309 -1.40848,-1.990502 -2.64647,-2.60798 l -0.40195,-0.200486 -0.37554,-0.112887 c -0.20654,-0.06209 -0.56008,-0.140772 -0.78562,-0.174849 l -0.41009,-0.06192 -0.69427,0.02067 -0.69427,0.02058 -0.29233,0.07581 c -0.69005,0.178718 -1.11035,0.383428 -1.88184,0.916523 l -0.38368,0.265134 -0.4425,0.450615 -0.4425,0.450631 -0.19406,0.297988 c -0.52328,0.803504 -0.8225,1.67045 -0.91472,2.650316 l -0.0429,0.455641 0.0222,0.344928 c 0.0819,1.271407 0.58067,2.508974 1.40177,3.478292 l 0.25377,0.299575 0.34388,0.285529 c 0.87546,0.726934 1.79452,1.188908 2.70208,1.358218 0.45755,0.08534 0.55006,0.0915 1.1497,0.07639 l 0.54811,-0.01381 z m -1.20858,-2.378005 c -0.30693,-1.054866 -0.69874,-1.772351 -1.49984,-2.746587 l -0.22537,-0.274088 0.0459,-0.063 c 0.0253,-0.03464 0.12685,-0.149651 0.22576,-0.255643 l 0.17982,-0.192698 -0.0864,-0.194475 -0.0864,-0.194459 -0.44763,0.46805 -0.44762,0.468059 v 1.011984 1.012 l 0.0363,0.09784 0.0363,0.09784 0.12695,0.0544 c 0.0698,0.02993 0.19325,0.0544 0.27429,0.0544 h 0.14734 v 0.05969 0.05969 l -0.19184,-0.02919 c -0.10551,-0.01603 -0.57415,-0.0266 -1.04141,-0.02354 l -0.84957,0.005 v -0.03183 c 0,-0.01752 0.0926,-0.04356 0.20587,-0.05811 l 0.20588,-0.02637 0.0872,-0.08938 0.0872,-0.08937 -0.01,-2.415175 -0.01,-2.415167 -0.0734,-0.07515 -0.0733,-0.07515 -0.19791,-0.03851 c -0.21794,-0.04241 -0.28251,-0.07556 -0.14562,-0.07498 0.0486,2.23e-4 0.51995,-0.0041 1.04752,-0.0091 l 0.95921,-0.01009 -0.0122,0.03729 c -0.007,0.02058 -0.10058,0.05043 -0.20863,0.06638 -0.10804,0.01587 -0.23172,0.05266 -0.27483,0.0816 l -0.0784,0.05266 -0.0236,0.176453 c -0.013,0.09704 -0.0236,0.64733 -0.0236,1.222861 v 1.046391 l 0.0339,-0.01248 c 0.11367,-0.04183 2.35481,-2.519417 2.3943,-2.646937 l 0.024,-0.07763 -0.0383,-0.07333 -0.0383,-0.07333 -0.11904,-0.03728 c -0.0655,-0.02058 -0.18069,-0.04786 -0.25605,-0.06076 l -0.13703,-0.02356 v -0.04125 -0.04125 l 0.46589,0.02819 c 0.52169,0.03166 0.76621,0.03108 1.20585,-0.0033 l 0.30146,-0.02323 v 0.04117 c 0,0.02274 -0.0452,0.0506 -0.10049,0.06242 -0.33393,0.07027 -0.56805,0.148298 -0.74257,0.247429 l -0.19835,0.112662 -0.84957,0.882686 -0.84957,0.882703 v 0.06357 c 0,0.06853 0.31393,0.54839 0.67275,1.028452 0.12237,0.163712 0.2841,0.391199 0.3594,0.505524 l 0.13692,0.20786 1.1e-4,0.09744 c 1.8e-4,0.149867 -0.0714,0.338042 -0.18592,0.488685 l -0.10391,0.136713 0.1592,0.163151 0.1592,0.163152 0.0591,0.203966 c 0.0325,0.112184 0.078,0.390099 0.10109,0.617577 l 0.042,0.413611 -0.0338,0.187225 -0.0338,0.187232 z m 0.28137,-0.122743 c -0.0186,-0.723296 0.0521,-1.148878 0.2265,-1.362979 l 0.10122,-0.124238 -0.16491,-0.14875 -0.16491,-0.148766 -0.0498,-0.122172 -0.0498,-0.122154 v -1.495602 -1.495576 l 0.18617,-0.171543 c 0.1024,-0.09431 0.30383,-0.246458 0.44763,-0.338016 l 0.26144,-0.166491 0.28587,-0.09794 0.28586,-0.09795 0.35847,4.38e-4 0.35848,4.3e-4 0.26831,0.05729 c 0.34383,0.07341 0.59479,0.200344 0.79618,0.402508 l 0.16023,0.160845 0.0941,0.205958 0.0942,0.205958 0.001,0.299575 10e-4,0.299575 -0.10318,0.229387 -0.10319,0.229412 -0.13651,0.136597 -0.13651,0.136614 -0.2893,0.148932 -0.2893,0.148948 -0.28467,0.06258 c -0.3161,0.06961 -0.31783,0.0827 -0.0231,0.173882 0.11273,0.03489 0.26941,0.111242 0.34818,0.169716 l 0.14321,0.106306 0.11319,0.221095 c 0.0623,0.121601 0.19975,0.490702 0.30553,0.820229 0.27939,0.870336 0.40967,1.11338 0.62253,1.161279 l 0.10237,0.02298 0.11229,-0.05952 c 0.15021,-0.07961 0.14148,-0.121526 -0.0355,-0.170359 l -0.14777,-0.04075 -0.0371,-0.100065 -0.0371,-0.100066 0.0383,-0.08604 0.0383,-0.08605 0.10056,-0.0391 0.10055,-0.0391 0.11809,0.02274 0.11809,0.02274 0.0559,0.08168 0.0559,0.08168 v 0.142765 0.142773 l -0.0604,0.09441 c -0.0332,0.052 -0.12712,0.129339 -0.20868,0.17198 l -0.14823,0.07763 -0.29886,-0.01909 -0.29885,-0.0191 -0.22557,-0.123213 -0.22557,-0.123205 -0.15626,-0.178098 c -0.20098,-0.229082 -0.38948,-0.599035 -0.59021,-1.158386 -0.24773,-0.690337 -0.34279,-0.840038 -0.62655,-0.986705 l -0.11694,-0.06046 h -0.16791 -0.16791 l -0.0925,0.09482 -0.0925,0.09481 0.009,0.820741 0.009,0.820758 -0.1552,0.172543 -0.15521,0.172551 -0.14663,0.313158 -0.14663,0.313174 -0.0608,0.321144 c -0.0805,0.425193 -0.11097,0.405154 -0.1235,-0.08118 z m 1.51632,-3.209966 0.24776,-0.05382 0.18545,-0.103429 c 0.22713,-0.126695 0.37364,-0.303007 0.477,-0.574044 l 0.0785,-0.205958 0.003,-0.393903 0.003,-0.39391 -0.12201,-0.254131 -0.12204,-0.254122 -0.17028,-0.127611 -0.17028,-0.127595 -0.18293,-0.0396 -0.18294,-0.03952 -0.19097,0.03712 c -0.23257,0.04522 -0.46892,0.164053 -0.51974,0.261365 l -0.0376,0.07201 -0.0156,0.985711 c -0.008,0.542148 -0.007,1.048913 0.004,1.126144 l 0.0202,0.140425 0.22371,-5.46e-4 c 0.12304,-3.63e-4 0.3352,-0.0248 0.47147,-0.05448 z m -0.73193,2.760882 c -0.14571,-0.0066 -0.26492,-0.021 -0.26492,-0.03076 0,-0.03993 0.17854,-0.302055 0.25105,-0.368515 l 0.0778,-0.07126 v 0.06142 c 0,0.03382 0.046,0.114169 0.10226,0.178669 l 0.10227,0.117293 0.29968,0.04109 c 0.16482,0.02257 0.29968,0.0544 0.29968,0.07052 v 0.02951 l -0.30146,-0.0066 c -0.1658,-0.0041 -0.42068,-0.01323 -0.56638,-0.02042 z m 3.38915,3.753741 c 0,-0.01035 -0.008,-0.01877 -0.0183,-0.01877 -0.0101,0 -0.0183,0.0084 -0.0183,0.01877 0,0.01024 0.008,0.01869 0.0183,0.01869 0.0101,0 0.0183,-0.0084 0.0183,-0.01869 z m 0.38368,-0.07771 c 0.67883,-0.174717 1.75899,-1.118001 1.83161,-1.599501 0.007,-0.04563 0.0548,-0.206661 0.1065,-0.35795 l 0.094,-0.275087 -0.0112,-0.115111 -0.0112,-0.115119 -0.12088,0.304476 c -0.16371,0.412322 -0.4222,0.806994 -0.77576,1.184387 l -0.29482,0.314719 -0.26791,0.189789 c -0.14735,0.104389 -0.40362,0.257056 -0.56948,0.339256 -0.16587,0.08217 -0.30875,0.156785 -0.3175,0.165773 -0.022,0.02257 0.20319,-8.27e-4 0.33661,-0.03564 z m -9.90567,-0.362348 c -0.59913,-0.492148 -0.73508,-0.621395 -0.97494,-0.92689 l -0.24727,-0.314944 -0.18211,-0.376094 -0.1821,-0.376088 -0.0922,-0.373383 -0.0922,-0.373384 -0.0378,-0.469157 c -0.0619,-0.768187 -0.18949,-1.220289 -0.59883,-2.122743 l -0.20652,-0.455294 -0.0745,-0.368531 -0.0745,-0.368531 0.0183,-0.430633 0.0183,-0.430633 0.0954,-0.329808 c 0.10744,-0.371391 0.2198,-0.615461 0.43431,-0.943383 l 0.14697,-0.224667 0.71886,-0.748933 0.71887,-0.748925 0.18246,-0.28085 c 0.10035,-0.15447 0.26986,-0.440934 0.37668,-0.636591 0.61424,-1.125078 1.33411,-1.747317 2.32147,-2.006631 l 0.25578,-0.06721 0.56638,0.0017 c 0.31151,8.26e-4 1.0268,0.0084 1.58952,0.01563 l 1.02314,0.01364 0.4681,-0.08483 0.4681,-0.08483 0.44542,3.55e-4 c 0.24498,1.9e-4 0.56874,0.01505 0.71947,0.0329 0.60987,0.07225 0.52463,-0.09703 -0.11722,-0.23281 l -0.28165,-0.05961 -0.37608,1.57e-4 -0.37608,1.49e-4 -0.34714,0.05787 c -0.19092,0.03191 -0.5847,0.08242 -0.87506,0.112449 l -0.52792,0.05456 -0.29424,-0.02158 c -0.16184,-0.01191 -0.55734,-0.06432 -0.8789,-0.116287 l -0.58465,-0.09462 -0.3654,-0.0105 -0.36541,-0.0105 -0.34526,0.07225 c -1.13937,0.238638 -1.90599,0.909786 -2.47714,2.16865 -0.27917,0.615304 -0.40588,0.839615 -0.6306,1.116331 l -0.18733,0.230669 -0.354,0.285124 c -0.8686,0.699586 -1.24831,1.199944 -1.4869,1.959376 l -0.1,0.3183 -0.0187,0.476111 -0.0187,0.476127 0.0808,0.366422 0.0808,0.366431 0.14672,0.299567 c 0.0807,0.164764 0.2032,0.395333 0.27224,0.512378 0.069,0.117047 0.19809,0.369805 0.28678,0.561692 l 0.16124,0.348898 0.0952,0.481971 0.0952,0.48198 0.053,0.05431 0.053,0.05431 -0.0548,0.05622 -0.0548,0.05622 7.8e-4,0.343696 7.8e-4,0.343713 0.069,0.318292 c 0.13879,0.639964 0.37443,1.086528 0.81012,1.535308 l 0.23631,0.243399 0.28664,0.164458 c 0.27134,0.155686 0.71206,0.338562 0.82003,0.340282 0.0272,4.38e-4 -0.0787,-0.104531 -0.23539,-0.233248 z m 13.11953,-7.573547 c -0.0324,-0.294143 -0.18231,-0.778984 -0.30025,-0.970896 -0.24418,-0.39735 -0.73979,-0.932281 -0.80337,-0.867111 -0.009,0.0091 0.0944,0.173278 0.22899,0.365364 0.34128,0.487073 0.55882,0.949518 0.71305,1.515814 0.044,0.161613 0.0892,0.309371 0.10028,0.328336 l 0.0203,0.03447 0.0329,-0.09068 0.0329,-0.09069 z"
     id="path312"
     transform="matrix(4.3660251,0,0,4.3660251,530.0886,-230.33084)" /><ellipse
     style="fill:url(#radialGradient10-1);fill-rule:nonzero;stroke:#741b1b;stroke-width:0.538681;stroke-dasharray:none;stroke-opacity:1;filter:url(#filter505-6)"
     id="path37-5-5"
     cx="10.635659"
     cy="9.578557"
     rx="6.3161902"
     ry="6.3808846"
     transform="matrix(4.5275769,0,0,4.479775,-8.3257801,-4.4956801)" /><path
     style="fill:url(#linearGradient517);stroke-width:0.328746;filter:url(#filter151-4)"
     d="m 10.498301,13.367486 c -0.0041,-0.01402 -0.03455,-0.135742 -0.06773,-0.270519 C 10.27134,12.450159 9.9880388,11.771082 9.6115015,11.133623 9.3331135,10.662332 8.7610175,9.7276144 8.4265245,9.1975545 c -0.09084,-0.14395 -0.165165,-0.26498 -0.165165,-0.268954 0,-0.0039 0.09665,-0.08865 0.214761,-0.188159 0.118118,-0.09952 0.263625,-0.225799 0.323348,-0.280631 l 0.108591,-0.09969 -0.07133,-0.0819 c -0.03923,-0.04504 -0.07645,-0.0819 -0.08272,-0.0819 -0.0062,0 -0.06593,0.05034 -0.132595,0.111865 -0.128543,0.118639 -0.530195,0.484775 -0.741368,0.675813 l -0.126508,0.114444 -8.92e-4,1.3536505 c -9.57e-4,1.470969 -0.0046,1.403466 0.08079,1.488352 0.09259,0.09201 0.27049,0.135127 0.613651,0.148725 0.22729,0.009 0.265026,0.0196 0.245873,0.06909 -0.0074,0.01931 -0.187747,0.02184 -1.553235,0.02184 h -1.544783 l 0.0046,-0.03969 0.0046,-0.0397 0.218399,-0.0096 c 0.431418,-0.01899 0.602829,-0.07368 0.680001,-0.216974 l 0.03344,-0.0621 0.0045,-2.8362725 c 0.0033,-2.105414 1.02e-4,-2.856276 -0.01238,-2.913879 -0.02378,-0.109726 -0.103112,-0.186184 -0.239075,-0.230432 -0.09381,-0.03053 -0.169289,-0.04023 -0.553795,-0.07115 -0.127235,-0.01018 -0.13104,-0.01159 -0.13104,-0.04662 v -0.03609 l 1.530601,-0.0037 c 1.342109,-0.0032 1.532821,-0.001 1.548628,0.01785 0.04018,0.04799 0.0087,0.06035 -0.178727,0.07028 -0.46716,0.02476 -0.650723,0.08345 -0.722849,0.231164 -0.0297,0.06082 -0.03005,0.07724 -0.03005,1.393623 v 1.332078 l 0.0546,-0.04691 c 0.03003,-0.0258 0.215023,-0.193724 0.411095,-0.373166 0.585427,-0.535768 0.73679,-0.673539 1.063992,-0.968451 0.9596905,-0.864984 1.2075555,-1.113544 1.2303025,-1.233751 0.01414,-0.07475 -0.02766,-0.145994 -0.114527,-0.195176 -0.120528,-0.06824 -0.4350312,-0.129595 -0.6660355,-0.129934 -0.04444,-6.5e-5 -0.08868,-0.0079 -0.09828,-0.01744 -0.02834,-0.0281 -0.02038,-0.06804 0.01528,-0.07658 0.01801,-0.0043 0.6191635,-0.006 1.3358795,-0.0039 l 1.30312,0.0039 0.0045,0.03196 c 0.0052,0.03653 -0.0073,0.04078 -0.162872,0.05524 -0.228413,0.02121 -0.586017,0.127983 -0.815057,0.243354 -0.40628,0.204652 -0.645901,0.400294 -1.9022405,1.553122 -0.236237,0.216773 -0.431159,0.395293 -0.433163,0.396713 -0.002,0.0014 0.175412,0.239117 0.394254,0.528216 0.8993605,1.1880879 1.0110105,1.3367179 1.0286345,1.3693639 0.05845,0.108235 -0.058,0.3696726 -0.302308,0.6787526 -0.05902,0.07464 -0.07048,0.09762 -0.05694,0.11382 0.0094,0.0111 0.0832,0.06432 0.16411,0.118143 0.230158,0.153082 0.224984,0.143244 0.25394,0.482826 0.05022,0.58898 0.09397,2.114206 0.06122,2.134275 -0.0085,0.0053 -0.01897,-0.0018 -0.02303,-0.01589 z m 0.156662,0.0082 c -0.0058,-0.0093 -0.01361,-0.556889 -0.01741,-1.21692 -0.0078,-1.371275 -0.01935,-1.250712 0.130306,-1.371541 0.230769,-0.186325 0.261105,-0.214124 0.256955,-0.235483 -0.0024,-0.01239 -0.07167,-0.08038 -0.1539,-0.151086 -0.08224,-0.07068 -0.167403,-0.15178 -0.189257,-0.180179 l -0.03973,-0.05164 -0.0039,-1.6350735 -0.0039,-1.635073 0.149482,-0.132492 c 0.308793,-0.273698 0.589489,-0.457141 0.943002,-0.61628 0.208945,-0.09406 0.283337,-0.111611 0.63336,-0.149466 0.246604,-0.02666 0.779815,-0.02309 0.997359,0.0067 0.836315,0.114467 1.368334,0.459043 1.542911,0.999316 0.158659,0.491012 0.03867,1.00183 -0.319871,1.361608 -0.306243,0.30731 -0.754314,0.516314 -1.287276,0.60045 -0.119188,0.01881 -0.547462,0.06502 -0.602709,0.06502 -0.062,0 0.01485,0.01833 0.216899,0.0517 0.5839,0.09647 0.931092,0.3080229 1.163995,0.7092209 0.136545,0.2352136 0.248475,0.5676666 0.407146,1.2093106 0.155232,0.627728 0.20524,0.758559 0.345771,0.904618 0.05719,0.05945 0.102928,0.09185 0.159016,0.11264 0.133253,0.04942 0.270793,0.03077 0.310114,-0.04207 0.02245,-0.04158 0.0069,-0.06266 -0.07235,-0.09718 -0.09938,-0.04336 -0.134307,-0.101215 -0.127222,-0.210621 0.0092,-0.142514 0.106313,-0.226463 0.262408,-0.226904 0.201349,-5.56e-4 0.329925,0.128566 0.330309,0.331742 3.96e-4,0.213694 -0.147508,0.367827 -0.426478,0.444413 -0.07098,0.01947 -0.146724,0.02442 -0.3593,0.02336 -0.245175,-0.0011 -0.282405,-0.0049 -0.414667,-0.04051 -0.602166,-0.162348 -1.010992,-0.57503 -1.245252,-1.256962 -0.03268,-0.09512 -0.108468,-0.369677 -0.168423,-0.610119 -0.118054,-0.4737876 -0.153379,-0.5848556 -0.242114,-0.7614426 -0.10655,-0.2120359 -0.2216,-0.3301829 -0.411992,-0.4230689 -0.120685,-0.05888 -0.256693,-0.08596 -0.491398,-0.09783 l -0.200201,-0.01018 v 0.9209589 0.9209586 l -0.08545,0.123993 c -0.379339,0.550505 -0.69569,1.31461 -0.876006,2.115879 -0.02501,0.111137 -0.05137,0.21669 -0.05858,0.234553 -0.01436,0.03557 -0.03527,0.0419 -0.05165,0.01561 z m 1.988953,-4.4800545 c 0.74429,-0.129489 1.152529,-0.577426 1.216175,-1.334446 0.01908,-0.226959 -0.04228,-0.561136 -0.137288,-0.747725 -0.263792,-0.518043 -0.842463,-0.72342 -1.763206,-0.62578 l -0.225681,0.02393 -0.0038,1.344456 -0.0038,1.344458 0.134755,0.01428 c 0.190959,0.02022 0.616055,0.0098 0.782674,-0.01917 z m -1.372437,3.2758425 c -0.02398,-0.02377 0.214587,-0.521543 0.430153,-0.897499 l 0.06141,-0.107089 0.01194,0.04831 c 0.03617,0.146395 0.106573,0.33957 0.149523,0.410283 0.104715,0.172396 0.242581,0.297333 0.403596,0.365755 0.07219,0.03068 0.293408,0.08073 0.432305,0.0978 0.08811,0.01087 0.09464,0.01413 0.09464,0.04772 v 0.03609 l -0.787329,0.0038 c -0.433031,0.0021 -0.791333,-2.39e-4 -0.79623,-0.0052 z"
     id="path38-0"
     transform="matrix(4.0373181,0,0,3.770225,-2.5604801,4.7359009)" /></svg>
