<?xml version="1.0" encoding="UTF-8" standalone="no"?>
<!-- Created with Inkscape (http://www.inkscape.org/) -->

<svg
   width="58.690544mm"
   height="20.243612mm"
   viewBox="0 0 58.690544 20.243612"
   version="1.1"
   id="svg1"
   xml:space="preserve"
   inkscape:version="1.4.3 (0d15f75, 2025-12-25)"
   sodipodi:docname="kiri logo.svg"
   inkscape:export-filename="kiri logo.png"
   inkscape:export-xdpi="96"
   inkscape:export-ydpi="96"
   xmlns:inkscape="http://www.inkscape.org/namespaces/inkscape"
   xmlns:sodipodi="http://sodipodi.sourceforge.net/DTD/sodipodi-0.dtd"
   xmlns:xlink="http://www.w3.org/1999/xlink"
   xmlns="http://www.w3.org/2000/svg"
   xmlns:svg="http://www.w3.org/2000/svg"><sodipodi:namedview
     id="namedview1"
     pagecolor="#ffffff"
     bordercolor="#000000"
     borderopacity="0.25"
     inkscape:showpageshadow="2"
     inkscape:pageopacity="0.0"
     inkscape:pagecheckerboard="0"
     inkscape:deskcolor="#d1d1d1"
     inkscape:document-units="mm"
     inkscape:zoom="2.9438094"
     inkscape:cx="91.378198"
     inkscape:cy="83.904888"
     inkscape:window-width="1728"
     inkscape:window-height="1005"
     inkscape:window-x="0"
     inkscape:window-y="33"
     inkscape:window-maximized="0"
     inkscape:current-layer="svg1"
     inkscape:lockguides="true"
     inkscape:export-bgcolor="#ffffffff"
     showguides="false"><inkscape:page
       x="0"
       y="0"
       width="58.690544"
       height="20.243612"
       id="page2"
       margin="0"
       bleed="0" /></sodipodi:namedview><defs
     id="defs1"><linearGradient
       id="linearGradient520"
       inkscape:collect="always"><stop
         style="stop-color:#e9be8c;stop-opacity:1;"
         offset="0"
         id="stop517" /><stop
         style="stop-color:#ffffff;stop-opacity:1;"
         offset="0.43537417"
         id="stop518" /><stop
         style="stop-color:#d9aa82;stop-opacity:1;"
         offset="0.43537417"
         id="stop519" /><stop
         style="stop-color:#fff4e7;stop-opacity:1;"
         offset="0.56802714"
         id="stop520" /></linearGradient><linearGradient
       id="linearGradient9"
       inkscape:collect="always"><stop
         style="stop-color:#a40000;stop-opacity:0.99027901;"
         offset="0"
         id="stop9" /><stop
         style="stop-color:#3f0202;stop-opacity:1;"
         offset="1"
         id="stop10" /></linearGradient><linearGradient
       id="linearGradient12"
       inkscape:collect="always"><stop
         style="stop-color:#fa0b0b;stop-opacity:1;"
         offset="0"
         id="stop16" /><stop
         style="stop-color:#390303;stop-opacity:1;"
         offset="0.1122449"
         id="stop15" /><stop
         style="stop-color:#920303;stop-opacity:1;"
         offset="0.41326532"
         id="stop14" /><stop
         style="stop-color:#080808;stop-opacity:1;"
         offset="0.85204077"
         id="stop12" /><stop
         style="stop-color:#c60707;stop-opacity:1;"
         offset="1"
         id="stop13" /></linearGradient><linearGradient
       id="swatch231"
       inkscape:swatch="solid"><stop
         style="stop-color:#008000;stop-opacity:1;"
         offset="0"
         id="stop231" /></linearGradient><linearGradient
       id="swatch229"
       inkscape:swatch="solid"><stop
         style="stop-color:#005b80;stop-opacity:1;"
         offset="0"
         id="stop229" /></linearGradient><rect
       x="121.81891"
       y="466.08975"
       width="306.1362"
       height="166.3093"
       id="rect5-6-19-5-9-1-2-0-8" /><linearGradient
       inkscape:collect="always"
       xlink:href="#linearGradient12"
       id="linearGradient13"
       x1="3.6499468e-06"
       y1="10.129877"
       x2="20.922549"
       y2="10.129877"
       gradientUnits="userSpaceOnUse"
       gradientTransform="matrix(0.80779648,0,0,0.82670982,2.0534737,1.4545439)" /><filter
       style="color-interpolation-filters:sRGB;"
       inkscape:label="Color Shift"
       id="filter37"
       x="-0.043042414"
       y="-0.043022092"
       width="1.0860848"
       height="1.1099453"><feFlood
         result="flood"
         in="SourceGraphic"
         flood-opacity="0.498039"
         flood-color="rgb(0,0,0)"
         id="feFlood36" /><feGaussianBlur
         result="blur"
         in="SourceGraphic"
         stdDeviation="0.300000"
         id="feGaussianBlur36" /><feOffset
         result="offset"
         in="blur"
         dx="0.000000"
         dy="0.400000"
         id="feOffset36" /><feComposite
         result="comp1"
         operator="in"
         in="flood"
         in2="offset"
         id="feComposite36" /><feComposite
         result="fbSourceGraphic"
         operator="over"
         in="SourceGraphic"
         in2="comp1"
         id="feComposite37" /><feColorMatrix
         result="fbSourceGraphicAlpha"
         in="fbSourceGraphic"
         values="0 0 0 -1 0 0 0 0 -1 0 0 0 0 -1 0 0 0 0 1 0"
         id="feColorMatrix497" /><feColorMatrix
         id="feColorMatrix498"
         type="hueRotate"
         values="177"
         result="color1"
         in="fbSourceGraphic" /><feColorMatrix
         id="feColorMatrix499"
         type="saturate"
         values="0.671733"
         result="color2" /></filter><filter
       style="color-interpolation-filters:sRGB;"
       inkscape:label="Color Shift"
       id="filter503"
       x="0"
       y="0"
       width="1"
       height="1"><feColorMatrix
         type="hueRotate"
         values="177"
         result="color1"
         id="feColorMatrix502" /><feColorMatrix
         type="saturate"
         values="0.671733"
         result="color2"
         id="feColorMatrix503" /></filter><filter
       inkscape:label="Soft Focus Lens"
       inkscape:menu="Image Effects"
       inkscape:menu-tooltip="Glowing image content without blurring it"
       style="color-interpolation-filters:sRGB"
       id="filter151-4"
       x="-0.1034531"
       y="-0.20147534"
       width="1.2069062"
       height="1.4029507"><feGaussianBlur
         stdDeviation="0.435 0.648"
         result="result3"
         id="feGaussianBlur149-49" /><feColorMatrix
         values="1 0 0 0 0 0 1 0 0 0 0 0 1 0 0 0 0 0 50 0 "
         result="result7"
         id="feColorMatrix149-15" /><feComposite
         operator="in"
         in2="SourceGraphic"
         result="result9"
         id="feComposite149-5" /><feComposite
         in2="result7"
         operator="arithmetic"
         in="result9"
         k1="0.5"
         k3="0.5"
         result="result1"
         id="feComposite150-5"
         k2="0"
         k4="0" /><feBlend
         in2="result1"
         result="result5"
         mode="screen"
         in="SourceGraphic"
         id="feBlend150-82" /><feBlend
         in2="result5"
         mode="darken"
         in="result5"
         result="result6"
         id="feBlend151-9" /><feComposite
         in2="SourceGraphic"
         operator="in"
         result="result8"
         id="feComposite151-8" /></filter><linearGradient
       inkscape:collect="always"
       xlink:href="#linearGradient520"
       id="linearGradient517"
       gradientUnits="userSpaceOnUse"
       gradientTransform="translate(-0.09588853,-0.44001049)"
       x1="8.2137127"
       y1="5.602448"
       x2="13.259479"
       y2="14.341971" /><radialGradient
       inkscape:collect="always"
       xlink:href="#linearGradient9"
       id="radialGradient10-1"
       cx="10.607275"
       cy="9.5319233"
       fx="10.607275"
       fy="9.5319233"
       r="5.7201204"
       gradientTransform="matrix(1.1042058,0,0,1.1155158,-1.0769555,-1.0544537)"
       gradientUnits="userSpaceOnUse" /><filter
       style="color-interpolation-filters:sRGB"
       inkscape:label="Color Shift"
       id="filter505-6"
       x="-0.021321435"
       y="-0.021105262"
       width="1.0426429"
       height="1.0422105"><feColorMatrix
         type="hueRotate"
         values="177"
         result="color1"
         id="feColorMatrix504-0" /><feColorMatrix
         type="saturate"
         values="0.671733"
         result="color2"
         id="feColorMatrix505-0" /></filter></defs><text
     xml:space="preserve"
     style="font-style:normal;font-variant:normal;font-weight:normal;font-stretch:normal;font-size:1.44793px;line-height:0;font-family:'Bodoni 72 Oldstyle';-inkscape-font-specification:'Bodoni 72 Oldstyle';letter-spacing:0.452437px;writing-mode:lr-tb;direction:ltr;fill:#333333;fill-opacity:0.990279;stroke:none;stroke-width:0.040873;stroke-dasharray:none;stroke-dashoffset:0;stroke-opacity:1"
     x="21.965448"
     y="16.684349"
     id="text8-7-7-0-1-5-8"
     transform="scale(0.97231101,1.0284775)"
     inkscape:export-filename="../Desktop/kiri logo.png"
     inkscape:export-xdpi="96"
     inkscape:export-ydpi="96"><tspan
       sodipodi:role="line"
       id="tspan8-07-9-7-23-1-8"
       style="font-style:normal;font-variant:normal;font-weight:normal;font-stretch:normal;line-height:0px;font-family:'Bangla MN';-inkscape-font-specification:'Bangla MN';letter-spacing:0.452437px;fill:#333333;fill-opacity:0.990279;stroke-width:0.040873"
       x="21.965448"
       y="16.684349"><tspan
   style="font-style:normal;font-variant:normal;font-weight:normal;font-stretch:normal;font-size:1.83608px;font-family:'Bangla MN';-inkscape-font-specification:'Bangla MN';letter-spacing:0.452437px;stroke-width:0.040873"
   id="tspan527">F</tspan>INE <tspan
   style="font-style:normal;font-variant:normal;font-weight:normal;font-stretch:normal;font-size:1.83608px;font-family:'Bangla MN';-inkscape-font-specification:'Bangla MN';letter-spacing:0.452437px;stroke-width:0.040873"
   id="tspan528">W</tspan>RITING <tspan
   style="font-style:normal;font-variant:normal;font-weight:normal;font-stretch:normal;font-size:1.83608px;font-family:'Bangla MN';-inkscape-font-specification:'Bangla MN';letter-spacing:0.452437px;stroke-width:0.040873"
   id="tspan529">I</tspan>NSTRUMENTS</tspan></text><text
     xml:space="preserve"
     transform="matrix(0.18553543,0,0,0.1676083,-2.5149828,-78.101892)"
     id="text5-2-9-0-3-6-7-4"
     style="font-style:normal;font-variant:normal;font-weight:normal;font-stretch:normal;font-size:96px;font-family:'Bodoni 72 Oldstyle';-inkscape-font-specification:'Bodoni 72 Oldstyle';letter-spacing:-0.360091px;writing-mode:lr-tb;direction:ltr;white-space:pre;shape-inside:url(#rect5-6-19-5-9-1-2-0-8);display:inline;fill:#004b38;fill-opacity:0.990279"><tspan
       x="121.81836"
       y="552.84525"
       id="tspan4"><tspan
         style="font-weight:bold"
         id="tspan3">KIRI</tspan></tspan></text><path
     d="M 10.034588,18.153375 C 9.9052949,18.133203 9.6187446,18.053144 9.3978082,17.975557 L 8.9961048,17.834496 8.7240106,17.673386 C 8.5743575,17.584772 8.3339904,17.412534 8.1898593,17.290661 7.6716352,16.852447 7.2634273,16.648002 6.3748602,16.381653 5.4713212,16.110823 5.0721098,15.919439 4.5970899,15.529389 L 4.3132133,15.296298 4.0795129,14.99545 3.845811,14.694602 3.6663864,14.320301 3.4869619,13.946008 3.3953117,13.571724 3.3036615,13.19743 3.2730542,12.43012 3.2424467,11.662818 3.1469983,11.325966 3.051549,10.98909 2.6916022,10.240504 2.3316562,9.4919183 2.2552952,9.1550588 2.1789342,8.8181911 2.1943712,8.2567559 2.2098001,7.6953207 2.3381816,7.3112065 2.4665623,6.9270841 2.6401569,6.6298984 C 2.8740624,6.2294567 3.16442,5.9052459 3.607418,5.5498598 4.3517856,4.9527107 4.6887248,4.4986404 5.0681822,3.5813067 5.2361854,3.1751607 5.4571976,2.8437243 5.7816492,2.5113622 L 6.0556876,2.2306447 6.3662199,2.0357478 C 6.7469982,1.7967626 7.1635773,1.6265099 7.5933985,1.5342161 l 0.3254911,-0.06994 0.3771213,-4.877e-4 0.3771207,-4.961e-4 0.5451059,0.1211709 0.5451059,0.1211709 0.6148166,-4.96e-4 0.614817,-4.878e-4 0.61482,-0.1250564 0.614817,-0.1250481 0.50632,0.018932 0.50632,0.018849 0.289328,0.079281 c 1.106632,0.3032371 1.89562,1.0337097 2.413949,2.2349439 0.356003,0.8250316 0.683904,1.2365925 1.383685,1.7367354 l 0.377853,0.2700448 0.25046,0.2728887 0.250458,0.2728804 0.189227,0.3312377 c 0.2169,0.3796832 0.333111,0.6786958 0.440727,1.1339815 l 0.07568,0.320135 -0.0025,0.4491515 -0.0025,0.4491515 -0.09353,0.3743011 -0.09353,0.3742931 -0.288253,0.5988601 -0.288252,0.59887 -0.09807,0.336867 -0.09807,0.336859 -0.0065,0.86087 -0.0065,0.860877 -0.09519,0.372334 -0.09519,0.372326 -0.144421,0.301732 -0.144424,0.301724 -0.235638,0.308412 -0.235639,0.308405 -0.298317,0.245483 -0.298318,0.245483 -0.361656,0.185216 -0.361658,0.185232 -0.738014,0.207001 c -1.045554,0.29325 -1.257045,0.39434 -2.119081,1.012818 -0.470691,0.337704 -0.953014,0.557385 -1.480928,0.674513 l -0.255027,0.05654 -0.397825,0.01414 -0.397823,0.01422 z m 1.887968,-2.031674 c 0.232792,-0.05175 0.598969,-0.154842 0.813729,-0.229106 l 0.390473,-0.134984 0.462657,-0.241127 c 0.766112,-0.399259 1.288109,-0.798395 1.879475,-1.437086 l 0.387566,-0.418588 0.295634,-0.456269 c 0.62311,-0.961679 0.952906,-1.948977 1.045255,-3.129147 l 0.03928,-0.5019704 -0.04043,-0.4711833 -0.04043,-0.4711915 -0.09189,-0.4274834 C 16.434275,5.2742678 14.004196,3.0739383 11.104227,2.8073243 l -0.400576,-0.036788 -0.37974,0.022817 C 6.9678329,2.9954091 4.4085171,5.428193 4.0644597,8.7433077 l -0.042732,0.4117263 0.021859,0.4865849 c 0.1497825,3.3347331 2.6222181,6.1203571 5.828256,6.5665481 l 0.2531593,0.03513 0.68715,-0.01381 0.687148,-0.01381 z m -1.70714,-0.46022 C 7.3122021,15.363154 5.0111632,13.015158 4.6786822,10.011746 L 4.6377108,9.6416354 4.6592951,9.1550588 C 4.784619,6.3302574 6.6913467,4.0589631 9.4559308,3.441353 l 0.3797402,-0.084795 0.741396,-8.268e-4 0.741399,-8.267e-4 0.307408,0.068039 c 1.69221,0.3747973 2.967329,1.2284165 3.938492,2.6366175 l 0.250495,0.3632233 0.220985,0.4570217 0.220984,0.4570135 0.123875,0.3955475 0.123875,0.3955394 0.07801,0.4761766 0.07801,0.4761765 -0.01641,0.6924441 -0.01641,0.6924434 -0.09936,0.449153 c -0.117537,0.531351 -0.279787,0.983173 -0.532986,1.484257 l -0.184632,0.365398 -0.279483,0.385198 c -1.263131,1.740885 -3.327792,2.716675 -5.315914,2.512388 z m 0.88985,-0.462685 0.466365,-0.03852 0.369521,-0.09145 c 1.858069,-0.459894 3.356254,-1.849907 3.967737,-3.681259 l 0.129406,-0.387562 0.07744,-0.454599 0.07744,-0.454592 -1.77e-4,-0.5240103 -1.77e-4,-0.5240101 -0.06207,-0.3742928 C 15.677494,5.9352637 13.460021,3.917389 10.775976,3.7957469 L 10.305822,3.774501 9.9137778,3.8186472 C 9.1362098,3.9061706 8.6428473,4.0808874 7.9299063,4.5211186 L 7.4603439,4.8110706 7.0819357,5.1248235 6.7035266,5.4385682 6.4290139,5.7622582 C 5.8306452,6.4678137 5.4328184,7.284355 5.2227437,8.2381301 l -0.078316,0.3555762 -0.019193,0.626737 -0.019193,0.6267203 0.043596,0.2902914 c 0.4079945,2.716775 2.5103633,4.800837 5.1037343,5.059283 0.168083,0.01669 0.323587,0.03281 0.345563,0.03555 0.02197,0.0025 0.249819,-0.01223 0.50632,-0.0334 z m -0.470343,-2.21421 c -0.0076,-0.02703 -0.0818,-0.259703 -0.1647,-0.517032 l -0.15073,-0.467868 -0.214576,-0.449152 -0.2145777,-0.449151 -0.2262434,-0.3245 C 9.5396622,10.598404 9.3281334,10.316272 9.1940319,10.14993 9.0599312,9.9835882 8.9309293,9.8155258 8.9073611,9.7764638 L 8.8645074,9.705532 9.0698057,9.4707381 C 9.299602,9.2079354 9.2950565,9.2208734 9.2215374,9.0387657 l -0.053573,-0.1326704 -0.045891,0.012235 c -0.025244,0.00661 -0.2217192,0.199361 -0.436623,0.4280703 l -0.3907327,0.4158103 0.0021,1.0413162 0.0021,1.041307 0.053177,0.08401 c 0.058582,0.09253 0.099462,0.109233 0.3556356,0.145294 l 0.173954,0.02456 -0.013886,0.04315 -0.013894,0.04315 -1.0043722,8.27e-4 -1.0043713,8.28e-4 -0.016673,-0.02795 c -0.021071,-0.0353 0.111007,-0.0918 0.2808042,-0.120163 l 0.1306554,-0.02183 0.068251,-0.07804 0.068251,-0.07804 V 9.4701264 7.0796288 l -0.077686,-0.080439 -0.077686,-0.080439 -0.1814198,-0.042327 -0.1814206,-0.042327 0.0059,-0.037368 0.0059,-0.037368 h 1.0035967 1.0035958 l -0.011737,0.036376 c -0.00646,0.020007 -0.1075631,0.056299 -0.2246821,0.080604 L 8.427868,6.9204868 8.3691,6.9955518 8.310332,7.0706998 8.286736,8.1314346 c -0.022473,1.0103551 -0.014032,1.2291687 0.047442,1.2291687 0.084609,0 2.272085,-2.4487641 2.303867,-2.5790536 l 0.02195,-0.090012 -0.03572,-0.059771 -0.03572,-0.059771 -0.231811,-0.060267 -0.23181,-0.060267 v -0.052 -0.052082 l 0.343575,0.017857 c 0.454344,0.023561 0.928257,0.023892 1.283883,8.267e-4 l 0.289326,-0.018683 v 0.052414 0.052413 l -0.25316,0.062416 C 11.190242,6.6620576 11.132538,6.7079234 9.9170008,8.0021046 L 9.3835562,8.5700543 v 0.090889 0.090905 l 0.2334654,0.341365 c 0.1284048,0.1877541 0.3806607,0.54462 0.5605684,0.7930378 l 0.327104,0.4516479 v 0.177826 0.177817 l -0.122471,0.210497 -0.12247,0.210488 0.08856,0.08611 c 0.130466,0.12686 0.229005,0.307446 0.288163,0.528128 l 0.05242,0.195566 0.02151,0.527888 0.0215,0.527886 -0.04153,0.02662 -0.04153,0.02662 z m 0.208993,-0.05399 c -0.09013,-0.371637 0.03408,-1.369335 0.202641,-1.6276 l 0.107157,-0.164193 -0.126921,-0.112284 c -0.06981,-0.06175 -0.158758,-0.162819 -0.197668,-0.224575 l -0.07075,-0.112284 -2.39e-4,-1.5600347 -2.38e-4,-1.5600429 0.288387,-0.2387951 0.288387,-0.2388035 0.269005,-0.1394576 0.269004,-0.1394494 0.265379,-0.058614 0.26538,-0.058614 0.325492,0.021412 c 0.547951,0.036044 0.933858,0.1735843 1.220596,0.434808 l 0.156141,0.1422355 0.107279,0.2004523 0.107279,0.2004524 V 8.0695061 8.443799 l -0.124926,0.2384893 -0.124925,0.2384893 -0.182484,0.1409457 c -0.271494,0.2096949 -0.561256,0.3424728 -0.932922,0.4274833 -0.146536,0.033482 -0.121715,0.082506 0.07628,0.1505688 l 0.175741,0.060432 0.151198,0.1339357 0.151199,0.1339437 0.08964,0.1830742 c 0.04931,0.100698 0.172938,0.448302 0.274746,0.772462 0.211106,0.672165 0.347344,0.977874 0.48616,1.090877 l 0.09662,0.0787 h 0.09671 c 0.05319,0 0.1283,-0.02422 0.16691,-0.05374 l 0.0702,-0.05373 -0.134319,-0.05853 c -0.140643,-0.06134 -0.20926,-0.152445 -0.20926,-0.278039 v -0.07457 l 0.0953,-0.07763 0.0953,-0.07763 h 0.116825 0.116826 l 0.09122,0.07432 c 0.05018,0.04075 0.101913,0.118334 0.114978,0.172212 l 0.02374,0.09792 -0.04019,0.126015 -0.04018,0.126007 -0.107721,0.0938 c -0.05925,0.0515 -0.17616,0.113359 -0.259793,0.137243 l -0.15206,0.04349 -0.245593,-0.04257 -0.245593,-0.04257 -0.176555,-0.09261 -0.176556,-0.09259 -0.179552,-0.188779 -0.179551,-0.18878 -0.129263,-0.254576 c -0.0711,-0.140037 -0.211599,-0.48074 -0.31223,-0.757151 -0.100621,-0.276425 -0.227955,-0.578166 -0.28295,-0.6705675 L 12.473207,9.7921653 12.329823,9.7081623 12.18644,9.6240693 11.981071,9.6235154 11.7757,9.6229781 l -0.05683,0.058862 -0.05683,0.058779 v 0.8243869 0.824386 l -0.148504,0.17418 c -0.24607,0.288604 -0.479682,0.845575 -0.555807,1.325125 -0.02591,0.163242 -0.07961,0.18305 -0.113818,0.04192 z m 1.330677,-3.4950055 c 0.132716,-0.019841 0.334209,-0.072089 0.447762,-0.1160618 l 0.206458,-0.079942 0.138822,-0.1297935 0.138821,-0.1298017 0.09128,-0.1997001 0.09128,-0.1996917 0.03369,-0.2461446 0.03369,-0.2461363 -0.03348,-0.2445904 -0.03348,-0.2446152 -0.08893,-0.1816364 -0.08894,-0.1816364 -0.147623,-0.130769 -0.147624,-0.1307855 -0.162406,-0.04704 -0.162407,-0.04704 -0.216264,0.023478 -0.216265,0.023396 -0.141828,0.0749 c -0.07801,0.041087 -0.167315,0.11254 -0.198467,0.1585712 l -0.05664,0.083655 v 1.0783314 1.0783273 l 0.08138,0.033895 c 0.105786,0.043981 0.143261,0.044146 0.431175,8.267e-4 z m -0.378536,2.7802675 -0.390393,-0.01298 -0.01957,-0.05274 -0.01958,-0.05275 0.11334,-0.170492 0.11334,-0.170493 h 0.06176 0.06176 l 0.04557,0.106546 0.04557,0.106556 0.09888,0.04828 c 0.05438,0.02662 0.196525,0.05861 0.315871,0.07126 l 0.216995,0.02282 v 0.05613 0.05605 l -0.12658,0.0016 c -0.06963,8.26e-4 -0.302257,-0.0033 -0.516973,-0.01067 z"
     style="fill:#af7474;fill-opacity:1;stroke-width:0.531562;filter:url(#filter37)"
     id="path1-1" /><path
     style="fill:url(#linearGradient13);fill-opacity:1;stroke:none;stroke-width:0.534432;stroke-opacity:1;filter:url(#filter503)"
     d="M 9.7986174,18.128375 C 9.2057974,17.998043 8.6173428,17.710481 8.147,17.321283 7.5800828,16.852166 7.2035187,16.667851 6.2035531,16.370095 L 5.6265135,16.198263 5.2904297,16.036236 C 4.4958416,15.653189 3.9726648,15.144481 3.587657,14.380551 L 3.4165729,14.041088 3.3246239,13.690539 C 3.2261745,13.315204 3.2090605,13.15397 3.1785395,12.314298 L 3.1589504,11.775424 3.0868949,11.486233 C 2.9974274,11.127126 2.8687003,10.815341 2.5592311,10.208164 2.2758351,9.6521264 2.1568337,9.3140104 2.0970423,8.8949676 L 2.0534777,8.5896637 2.0761526,8.2125104 2.0988275,7.8353406 2.1743968,7.5403457 C 2.3765051,6.7512924 2.8139608,6.1228029 3.5647762,5.5428163 4.2568711,5.008183 4.6221704,4.5108592 5.0036903,3.5838777 5.4492539,2.5012764 6.4700048,1.7379918 7.7370546,1.5399617 l 0.374227,-0.058531 0.2923367,0.021081 c 0.1607839,0.011574 0.5389805,0.074983 0.8404356,0.1407887 l 0.5480988,0.1196745 0.5481103,-0.00331 0.548109,-0.00331 0.4933,-0.098858 c 0.271315,-0.054399 0.653819,-0.1184282 0.85001,-0.1423449 l 0.356709,-0.043485 0.375106,0.042989 0.375107,0.042988 0.309594,0.09956 c 1.08233,0.3479292 1.779009,1.0035183 2.275776,2.1415753 0.229892,0.5266555 0.469523,0.9161516 0.750122,1.2192069 l 0.206947,0.2235175 0.420219,0.3033365 c 0.231119,0.1668217 0.514071,0.3984327 0.628779,0.5146516 l 0.20856,0.2113154 0.221577,0.3509631 0.221577,0.3509631 0.110531,0.2935067 c 0.06079,0.1614235 0.144688,0.4647432 0.18644,0.6740414 l 0.07591,0.3805263 -0.01884,0.4119164 -0.01884,0.4119165 -0.08355,0.337 -0.08355,0.3370249 -0.242173,0.4868084 c -0.282965,0.568786 -0.372614,0.792352 -0.477049,1.189644 l -0.07649,0.29092 -0.0093,0.869913 -0.0093,0.869922 -0.0813,0.294846 c -0.110145,0.399474 -0.255468,0.717038 -0.481319,1.051848 l -0.189133,0.28037 -0.261041,0.253691 c -0.313439,0.304618 -0.583688,0.49263 -0.984736,0.685096 l -0.299326,0.143641 -0.767351,0.209752 -0.767356,0.209745 -0.365404,0.185529 c -0.200977,0.102037 -0.529845,0.304883 -0.730814,0.450748 -0.6403,0.464702 -1.102605,0.689616 -1.692051,0.823196 l -0.317689,0.07201 -0.475029,-0.0016 -0.475029,-0.0016 z m 1.1001316,-0.31234 c 0.166485,-0.01959 0.434036,-0.07201 0.594557,-0.116367 l 0.291856,-0.08069 0.139915,-0.09865 c 0.07695,-0.05431 0.195483,-0.144244 0.2634,-0.199973 l 0.123485,-0.101285 -0.448246,0.147104 -0.448247,0.147114 -0.29913,0.03845 c -0.773965,0.09945 -1.3586275,-0.0016 -2.1821001,-0.377319 -0.3585348,-0.163565 -0.3969439,-0.159124 -0.1987204,0.02298 0.4816769,0.442463 1.4086745,0.707589 2.1632305,0.618676 z m 0.904819,-1.632189 0.476708,-0.08917 0.43681,-0.153867 c 2.486947,-0.87604 4.221773,-3.020831 4.513274,-5.579821 L 17.27494,9.9697814 17.25197,9.3706477 17.229,8.7714981 17.15897,8.4157566 C 17.120459,8.2200914 17.028648,7.8662265 16.954927,7.6293906 L 16.820893,7.1987492 16.568276,6.6744994 16.315658,6.1502413 16.068494,5.7977654 C 14.920661,4.1608385 13.312642,3.1369914 11.450035,2.8571336 l -0.388368,-0.058284 -0.488608,5.373e-4 -0.48861,5.54e-4 -0.3654075,0.053488 C 8.0926345,3.0913074 6.7309828,3.7962595 5.6358944,4.9674097 L 5.2449895,5.3854686 4.9856465,5.7829176 C 4.3323161,6.784179 4.0250876,7.7176501 3.9281529,8.9960163 l -0.036908,0.4867999 0.034502,0.3931919 c 0.2971205,3.3857329 2.8847883,6.0896679 6.1245311,6.3996939 l 0.363038,0.03472 0.456758,-0.01885 0.456761,-0.01885 z M 10.321993,15.689613 C 7.5102786,15.515624 5.0361928,13.181252 4.6368521,10.32554 L 4.5766311,9.894907 4.5940551,9.2208732 4.6114791,8.5468319 4.6935091,8.1547481 C 5.2488851,5.500249 7.5478231,3.5436252 10.3057,3.3782171 l 0.39996,-0.023975 0.383678,0.042907 c 2.744455,0.3068995 4.937931,2.3421848 5.479816,5.0846211 l 0.07593,0.3842713 0.02265,0.4582701 0.02265,0.4582702 -0.04509,0.4493582 -0.04509,0.449358 -0.101602,0.411908 c -0.181257,0.734813 -0.463927,1.356606 -0.914676,2.011964 l -0.237517,0.345325 -0.347137,0.361363 -0.347136,0.361355 -0.401946,0.304659 -0.401945,0.304651 -0.458552,0.238679 -0.458546,0.238663 -0.40565,0.134398 c -0.223107,0.07391 -0.592276,0.16726 -0.820375,0.207447 l -0.414727,0.073 -0.401948,0.01248 c -0.22107,0.0066 -0.475941,0.0084 -0.566378,0.0016 z m 1.430879,-0.532285 c 0.747564,-0.161473 1.383391,-0.440579 2.06023,-0.904387 l 0.395985,-0.271351 0.425367,-0.433147 c 0.504324,-0.513552 0.701005,-0.788912 1.009858,-1.413904 l 0.230199,-0.465818 0.110673,-0.367531 c 0.06086,-0.202147 0.142012,-0.550705 0.180317,-0.774569 l 0.06965,-0.407039 -0.01051,-0.6178672 -0.01051,-0.6178581 -0.07744,-0.3684976 C 16.094027,8.3126828 16.008824,7.9925229 15.947265,7.803876 L 15.835344,7.4608824 15.581135,6.9587305 C 14.972483,5.7564215 14.172657,4.9682282 12.934666,4.3507503 L 12.532719,4.1502648 12.15718,4.0373777 C 11.950635,3.9752917 11.597103,3.8966055 11.371555,3.8625285 L 10.961471,3.800608 10.267198,3.8212757 9.5729248,3.8418608 9.2805994,3.91767 C 8.5905465,4.0963882 8.17025,4.3010981 7.3987543,4.8341937 L 7.0150768,5.0993278 6.5725797,5.5499425 6.1300809,6.0005738 5.9360182,6.2985613 C 5.4127341,7.1020655 5.1135199,7.9690112 5.0213019,8.9488773 l -0.042886,0.4556412 0.022223,0.3449284 c 0.081915,1.2714061 0.5806683,2.5089731 1.4017708,3.4782911 l 0.253766,0.299575 0.3438822,0.285529 c 0.8754575,0.726934 1.7945223,1.188908 2.7020801,1.358218 0.4575466,0.08534 0.5500596,0.0915 1.1497056,0.07639 l 0.548109,-0.01381 z m -1.20858,-2.378005 C 10.237356,11.724457 9.8455502,11.006972 9.0444474,10.032736 L 8.8190754,9.7586481 8.8650067,9.6956528 C 8.8902746,9.6610137 8.9918631,9.5460018 9.0907648,9.4400094 L 9.2705851,9.2473116 9.1842341,9.0528364 9.0978742,8.8583776 8.6502508,9.3264277 8.2026273,9.794486 v 1.011984 1.012 l 0.036311,0.09784 0.036311,0.09784 0.1269524,0.0544 c 0.069826,0.02993 0.1932515,0.0544 0.2742865,0.0544 h 0.1473372 v 0.05969 0.05969 L 8.6319864,12.21314 C 8.5264738,12.19711 8.0578395,12.18654 7.5905761,12.1896 l -0.8495717,0.005 v -0.03183 c 0,-0.01752 0.092643,-0.04356 0.2058775,-0.05811 l 0.2058758,-0.02637 0.087236,-0.08938 0.087236,-0.08937 -0.00992,-2.415175 -0.00992,-2.4151667 -0.073356,-0.075148 -0.073356,-0.075148 -0.1979054,-0.03851 c -0.2179466,-0.04241 -0.2825178,-0.075561 -0.145623,-0.074983 0.048564,2.232e-4 0.5199528,-0.00414 1.0475206,-0.00909 l 0.959213,-0.010085 -0.012174,0.037285 c -0.00671,0.020585 -0.1005783,0.050429 -0.2086257,0.066385 -0.1080455,0.015872 -0.2317228,0.052662 -0.2748381,0.081597 l -0.078397,0.052662 -0.023603,0.1764529 c -0.012982,0.097039 -0.023603,0.6473304 -0.023603,1.222861 v 1.0463914 l 0.033935,-0.012483 C 8.3502466,9.4155514 10.591386,6.9379685 10.630881,6.8104485 l 0.02403,-0.077628 -0.03828,-0.073329 -0.03828,-0.073329 -0.119038,-0.037285 c -0.06547,-0.020581 -0.180691,-0.047862 -0.256057,-0.060759 l -0.137027,-0.023561 v -0.041252 -0.041252 l 0.465894,0.028191 c 0.521683,0.031663 0.76621,0.031085 1.205843,-0.00331 l 0.301459,-0.02323 v 0.04117 c 0,0.022735 -0.04522,0.050595 -0.100485,0.062417 -0.333928,0.070273 -0.568051,0.1482983 -0.742569,0.247429 l -0.198353,0.1126618 -0.84957,0.8826864 -0.8495701,0.8827029 v 0.063574 c 0,0.068534 0.3139308,0.5483897 0.6727545,1.0284518 C 10.094,9.8685093 10.25573,10.095996 10.331031,10.210321 l 0.136913,0.20786 1.16e-4,0.09744 c 1.79e-4,0.149867 -0.07141,0.338042 -0.185917,0.488685 l -0.103916,0.136713 0.159201,0.163151 0.159201,0.163152 0.0591,0.203966 c 0.03252,0.112184 0.07801,0.390099 0.101094,0.617577 l 0.04199,0.413611 -0.03381,0.187225 -0.03382,0.187232 z m 0.28137,-0.122743 c -0.01864,-0.723296 0.05209,-1.148878 0.226497,-1.362979 l 0.101215,-0.124238 -0.164909,-0.14875 -0.164909,-0.148766 -0.04981,-0.122172 -0.04981,-0.122154 V 9.1319192 7.6363433 L 10.91011,7.4648009 c 0.1024,-0.094311 0.303826,-0.2464587 0.447624,-0.3380168 l 0.261449,-0.1664911 0.285864,-0.097941 0.285865,-0.097948 0.358469,4.381e-4 0.358474,4.3e-4 0.268317,0.057291 c 0.343822,0.073412 0.59479,0.2003448 0.796178,0.4025084 l 0.160232,0.1608447 0.09415,0.2059583 0.09416,0.2059582 0.0011,0.2995748 0.0011,0.2995749 -0.103185,0.2293871 -0.103185,0.229412 -0.136514,0.1365974 -0.13651,0.1366138 -0.2893,0.1489317 -0.289304,0.1489483 -0.284666,0.062582 c -0.316095,0.069609 -0.317834,0.082696 -0.02311,0.1738819 0.112732,0.034887 0.269413,0.1112422 0.348181,0.1697158 l 0.143211,0.1063059 0.11319,0.2210947 c 0.06226,0.121601 0.199744,0.490702 0.305532,0.820229 0.279388,0.870336 0.409671,1.11338 0.622526,1.161279 l 0.102366,0.02298 0.112292,-0.05952 c 0.150212,-0.07961 0.14148,-0.121526 -0.03549,-0.170359 l -0.147769,-0.04075 -0.03711,-0.100065 -0.03711,-0.100066 0.03826,-0.08604 0.03826,-0.08605 0.100563,-0.0391 0.100552,-0.0391 0.118084,0.02274 0.118091,0.02274 0.05586,0.08168 0.05586,0.08168 v 0.142765 0.142773 l -0.06039,0.09441 c -0.03319,0.052 -0.127118,0.129339 -0.208674,0.17198 l -0.148235,0.07763 -0.298856,-0.01909 -0.298857,-0.0191 -0.22557,-0.123213 -0.22557,-0.123205 -0.156255,-0.178098 C 13.249283,11.590501 13.060781,11.220548 12.860052,10.661197 12.612314,9.9708601 12.517256,9.8211593 12.233495,9.6744926 l -0.11694,-0.060461 h -0.167908 -0.16791 l -0.09252,0.094824 -0.09252,0.094815 0.0092,0.8207404 0.0092,0.820758 -0.155203,0.172543 -0.155207,0.172551 -0.146631,0.313158 -0.146631,0.313174 -0.06079,0.321144 c -0.08047,0.425193 -0.110963,0.405154 -0.123492,-0.08118 z m 1.516313,-3.2099654 0.247761,-0.053818 0.185448,-0.1034296 c 0.227135,-0.1266941 0.373647,-0.3030066 0.477007,-0.5740434 l 0.07853,-0.2059582 0.0032,-0.3939025 0.0032,-0.3939107 L 13.215113,7.4674216 13.093067,7.2132993 12.922792,7.0856883 12.752511,6.9580939 12.569574,6.9184949 12.38664,6.8789779 12.195668,6.9160969 c -0.23257,0.045221 -0.468922,0.1640522 -0.519738,0.2613643 l -0.03762,0.072006 -0.01561,0.985711 c -0.0085,0.542148 -0.0065,1.0489129 0.0045,1.1261442 l 0.02015,0.1404248 0.223708,-5.456e-4 c 0.123039,-3.635e-4 0.335199,-0.024801 0.471468,-0.05448 z M 11.61005,12.207496 c -0.145707,-0.0066 -0.264921,-0.021 -0.264921,-0.03076 0,-0.03993 0.17854,-0.302055 0.251047,-0.368515 l 0.07783,-0.07126 v 0.06142 c 0,0.03382 0.04602,0.114169 0.102266,0.178669 l 0.102267,0.117293 0.29968,0.04109 c 0.164824,0.02257 0.299679,0.0544 0.299679,0.07052 v 0.02951 l -0.30146,-0.0066 c -0.165803,-0.0041 -0.420676,-0.01323 -0.56638,-0.02042 z m 3.38915,3.753741 c 0,-0.01035 -0.0082,-0.01877 -0.01827,-0.01877 -0.01007,0 -0.01828,0.0084 -0.01828,0.01877 0,0.01024 0.0083,0.01869 0.01828,0.01869 0.01007,0 0.01827,-0.0084 0.01827,-0.01869 z m 0.383674,-0.07771 c 0.678838,-0.174717 1.758997,-1.118001 1.83161,-1.599501 0.007,-0.04563 0.0548,-0.206661 0.106505,-0.35795 l 0.094,-0.275087 -0.01117,-0.115111 -0.01117,-0.115119 -0.120883,0.304476 c -0.163704,0.412322 -0.422197,0.806994 -0.775754,1.184387 l -0.294826,0.314719 -0.267912,0.189789 c -0.14735,0.104389 -0.403615,0.257056 -0.569479,0.339256 -0.165871,0.08217 -0.308742,0.156785 -0.3175,0.165773 -0.02197,0.02257 0.203197,-8.27e-4 0.336618,-0.03564 z M 5.4772068,15.521179 C 4.8780819,15.029031 4.7421289,14.899784 4.5022691,14.594289 L 4.2550002,14.279345 4.0728922,13.903251 3.890785,13.527163 3.7985952,13.15378 3.7064039,12.780396 3.6685585,12.311239 C 3.6066168,11.543052 3.4790713,11.09095 3.0697252,10.188496 L 2.8632097,9.733202 2.7887147,9.3646712 2.7142197,8.9961404 2.7325163,8.5655072 2.7508129,8.134874 2.8462274,7.8050664 C 2.9536732,7.4336753 3.0660329,7.1896057 3.2805376,6.8616831 L 3.4275096,6.6370164 4.1463734,5.8880833 4.8652371,5.1391587 5.047699,4.8583088 C 5.1480524,4.7038381 5.3175587,4.4173748 5.4243794,4.2217174 6.0386197,3.0966397 6.7584868,2.4744001 7.7458459,2.215086 l 0.2557839,-0.067212 0.5663808,0.00166 c 0.3115098,8.268e-4 1.0267934,0.00835 1.5895204,0.015625 l 1.023137,0.013641 0.468098,-0.084829 0.468099,-0.084829 0.445421,3.554e-4 c 0.244979,1.902e-4 0.568745,0.015046 0.719471,0.032904 0.60987,0.072254 0.524632,-0.097031 -0.117217,-0.2328098 l -0.281649,-0.059606 -0.376082,1.571e-4 -0.376083,1.488e-4 -0.347137,0.05787 c -0.190924,0.031911 -0.584701,0.082423 -0.875059,0.1124492 l -0.527924,0.054558 -0.294241,-0.021577 C 9.9245322,1.9416848 9.5290308,1.8892714 9.2074727,1.8373044 L 8.622822,1.7426875 8.2574152,1.7321882 7.8920086,1.721689 7.5467458,1.7939435 C 6.4073812,2.0325815 5.6407573,2.7037294 5.0696056,3.9625935 4.7904385,4.577897 4.6637275,4.8022082 4.4390049,5.0789246 L 4.2516826,5.3095932 3.8976747,5.5947171 C 3.0290745,6.2943037 2.6493706,6.7946617 2.4107782,7.5540938 l -0.1000008,0.3182999 -0.018684,0.4761104 -0.018684,0.476127 0.080847,0.3664226 0.080846,0.3664309 0.1467121,0.2995668 c 0.08069,0.1647636 0.2032019,0.3953326 0.2722451,0.5123776 0.069042,0.117047 0.1980919,0.369805 0.2867751,0.561692 l 0.1612434,0.348898 0.095202,0.481971 0.095202,0.48198 0.052991,0.05431 0.052991,0.05431 -0.054809,0.05622 -0.054809,0.05622 7.804e-4,0.343696 7.811e-4,0.343713 0.069034,0.318292 c 0.138789,0.639964 0.374429,1.086528 0.8101188,1.535308 l 0.236308,0.243399 0.2866409,0.164458 c 0.2713396,0.155686 0.7120564,0.338562 0.8200257,0.340282 0.027247,4.38e-4 -0.07868,-0.104531 -0.2353814,-0.233248 z M 18.59674,7.9476325 C 18.564388,7.6534892 18.414424,7.1686486 18.29649,6.9767363 18.052313,6.5793864 17.556703,6.0444556 17.493114,6.1096251 c -0.0086,0.00909 0.0944,0.1732784 0.228994,0.3653644 0.341281,0.4870726 0.558818,0.9495176 0.713053,1.5158138 0.044,0.1616135 0.08915,0.3093714 0.100275,0.3283362 l 0.02026,0.034474 0.03288,-0.090682 0.03288,-0.090689 z"
     id="path312"
     sodipodi:nodetypes="csscsscsscssscccsssscsscccsscccssscsscccsscccccsscccsscsscccsssccccsscsscccsssssccsscccsscccsscccsscsscsscccccscccsscsscccccsscccccccsscsccsscsscsscccsscsscsscccsscccsscsscssscssscsscccccccccsscccsccsscccccccssscssscsscsscccsscccsscscscccssscsscccsscccscscccccccsscccccsscccccccccccssscssscsscccccccccccccsscccccssscccccccccccsccccsscccccccccsscsccsscssscsscssccsssssssssscccsscssssscscccccsscccccsscccsssccscccssscccsscsscccssscsscccccssscccccccccsscssccsssssscccs" /><ellipse
     style="fill:url(#radialGradient10-1);fill-rule:nonzero;stroke:#741b1b;stroke-width:0.538681;stroke-dasharray:none;stroke-opacity:1;filter:url(#filter505-6)"
     id="path37-5-5"
     cx="10.635659"
     cy="9.578557"
     rx="6.3161902"
     ry="6.3808846"
     transform="matrix(1.037002,0,0,1.0260534,-0.44808555,-0.29515046)" /><path
     style="fill:url(#linearGradient517);stroke-width:0.328746;filter:url(#filter151-4)"
     d="m 10.498301,13.367486 c -0.0041,-0.01402 -0.03455,-0.135742 -0.06773,-0.270519 C 10.27134,12.450159 9.9880388,11.771082 9.6115015,11.133623 9.3331135,10.662332 8.7610175,9.7276144 8.4265245,9.1975545 c -0.09084,-0.14395 -0.165165,-0.26498 -0.165165,-0.268954 0,-0.0039 0.09665,-0.08865 0.214761,-0.188159 0.118118,-0.09952 0.263625,-0.225799 0.323348,-0.280631 l 0.108591,-0.09969 -0.07133,-0.0819 c -0.03923,-0.04504 -0.07645,-0.0819 -0.08272,-0.0819 -0.0062,0 -0.06593,0.05034 -0.132595,0.111865 -0.128543,0.118639 -0.530195,0.484775 -0.741368,0.675813 l -0.126508,0.114444 -8.92e-4,1.3536505 c -9.57e-4,1.470969 -0.0046,1.403466 0.08079,1.488352 0.09259,0.09201 0.27049,0.135127 0.613651,0.148725 0.22729,0.009 0.265026,0.0196 0.245873,0.06909 -0.0074,0.01931 -0.187747,0.02184 -1.553235,0.02184 h -1.544783 l 0.0046,-0.03969 0.0046,-0.0397 0.218399,-0.0096 c 0.431418,-0.01899 0.602829,-0.07368 0.680001,-0.216974 l 0.03344,-0.0621 0.0045,-2.8362725 c 0.0033,-2.105414 1.02e-4,-2.856276 -0.01238,-2.913879 -0.02378,-0.109726 -0.103112,-0.186184 -0.239075,-0.230432 -0.09381,-0.03053 -0.169289,-0.04023 -0.553795,-0.07115 -0.127235,-0.01018 -0.13104,-0.01159 -0.13104,-0.04662 v -0.03609 l 1.530601,-0.0037 c 1.342109,-0.0032 1.532821,-0.001 1.548628,0.01785 0.04018,0.04799 0.0087,0.06035 -0.178727,0.07028 -0.46716,0.02476 -0.650723,0.08345 -0.722849,0.231164 -0.0297,0.06082 -0.03005,0.07724 -0.03005,1.393623 v 1.332078 l 0.0546,-0.04691 c 0.03003,-0.0258 0.215023,-0.193724 0.411095,-0.373166 0.585427,-0.535768 0.73679,-0.673539 1.063992,-0.968451 0.9596905,-0.864984 1.2075555,-1.113544 1.2303025,-1.233751 0.01414,-0.07475 -0.02766,-0.145994 -0.114527,-0.195176 -0.120528,-0.06824 -0.4350312,-0.129595 -0.6660355,-0.129934 -0.04444,-6.5e-5 -0.08868,-0.0079 -0.09828,-0.01744 -0.02834,-0.0281 -0.02038,-0.06804 0.01528,-0.07658 0.01801,-0.0043 0.6191635,-0.006 1.3358795,-0.0039 l 1.30312,0.0039 0.0045,0.03196 c 0.0052,0.03653 -0.0073,0.04078 -0.162872,0.05524 -0.228413,0.02121 -0.586017,0.127983 -0.815057,0.243354 -0.40628,0.204652 -0.645901,0.400294 -1.9022405,1.553122 -0.236237,0.216773 -0.431159,0.395293 -0.433163,0.396713 -0.002,0.0014 0.175412,0.239117 0.394254,0.528216 0.8993605,1.1880879 1.0110105,1.3367179 1.0286345,1.3693639 0.05845,0.108235 -0.058,0.3696726 -0.302308,0.6787526 -0.05902,0.07464 -0.07048,0.09762 -0.05694,0.11382 0.0094,0.0111 0.0832,0.06432 0.16411,0.118143 0.230158,0.153082 0.224984,0.143244 0.25394,0.482826 0.05022,0.58898 0.09397,2.114206 0.06122,2.134275 -0.0085,0.0053 -0.01897,-0.0018 -0.02303,-0.01589 z m 0.156662,0.0082 c -0.0058,-0.0093 -0.01361,-0.556889 -0.01741,-1.21692 -0.0078,-1.371275 -0.01935,-1.250712 0.130306,-1.371541 0.230769,-0.186325 0.261105,-0.214124 0.256955,-0.235483 -0.0024,-0.01239 -0.07167,-0.08038 -0.1539,-0.151086 -0.08224,-0.07068 -0.167403,-0.15178 -0.189257,-0.180179 l -0.03973,-0.05164 -0.0039,-1.6350735 -0.0039,-1.635073 0.149482,-0.132492 c 0.308793,-0.273698 0.589489,-0.457141 0.943002,-0.61628 0.208945,-0.09406 0.283337,-0.111611 0.63336,-0.149466 0.246604,-0.02666 0.779815,-0.02309 0.997359,0.0067 0.836315,0.114467 1.368334,0.459043 1.542911,0.999316 0.158659,0.491012 0.03867,1.00183 -0.319871,1.361608 -0.306243,0.30731 -0.754314,0.516314 -1.287276,0.60045 -0.119188,0.01881 -0.547462,0.06502 -0.602709,0.06502 -0.062,0 0.01485,0.01833 0.216899,0.0517 0.5839,0.09647 0.931092,0.3080229 1.163995,0.7092209 0.136545,0.2352136 0.248475,0.5676666 0.407146,1.2093106 0.155232,0.627728 0.20524,0.758559 0.345771,0.904618 0.05719,0.05945 0.102928,0.09185 0.159016,0.11264 0.133253,0.04942 0.270793,0.03077 0.310114,-0.04207 0.02245,-0.04158 0.0069,-0.06266 -0.07235,-0.09718 -0.09938,-0.04336 -0.134307,-0.101215 -0.127222,-0.210621 0.0092,-0.142514 0.106313,-0.226463 0.262408,-0.226904 0.201349,-5.56e-4 0.329925,0.128566 0.330309,0.331742 3.96e-4,0.213694 -0.147508,0.367827 -0.426478,0.444413 -0.07098,0.01947 -0.146724,0.02442 -0.3593,0.02336 -0.245175,-0.0011 -0.282405,-0.0049 -0.414667,-0.04051 -0.602166,-0.162348 -1.010992,-0.57503 -1.245252,-1.256962 -0.03268,-0.09512 -0.108468,-0.369677 -0.168423,-0.610119 -0.118054,-0.4737876 -0.153379,-0.5848556 -0.242114,-0.7614426 -0.10655,-0.2120359 -0.2216,-0.3301829 -0.411992,-0.4230689 -0.120685,-0.05888 -0.256693,-0.08596 -0.491398,-0.09783 l -0.200201,-0.01018 v 0.9209589 0.9209586 l -0.08545,0.123993 c -0.379339,0.550505 -0.69569,1.31461 -0.876006,2.115879 -0.02501,0.111137 -0.05137,0.21669 -0.05858,0.234553 -0.01436,0.03557 -0.03527,0.0419 -0.05165,0.01561 z m 1.988953,-4.4800545 c 0.74429,-0.129489 1.152529,-0.577426 1.216175,-1.334446 0.01908,-0.226959 -0.04228,-0.561136 -0.137288,-0.747725 -0.263792,-0.518043 -0.842463,-0.72342 -1.763206,-0.62578 l -0.225681,0.02393 -0.0038,1.344456 -0.0038,1.344458 0.134755,0.01428 c 0.190959,0.02022 0.616055,0.0098 0.782674,-0.01917 z m -1.372437,3.2758425 c -0.02398,-0.02377 0.214587,-0.521543 0.430153,-0.897499 l 0.06141,-0.107089 0.01194,0.04831 c 0.03617,0.146395 0.106573,0.33957 0.149523,0.410283 0.104715,0.172396 0.242581,0.297333 0.403596,0.365755 0.07219,0.03068 0.293408,0.08073 0.432305,0.0978 0.08811,0.01087 0.09464,0.01413 0.09464,0.04772 v 0.03609 l -0.787329,0.0038 c -0.433031,0.0021 -0.791333,-2.39e-4 -0.79623,-0.0052 z"
     id="path38-0"
     transform="matrix(0.92471251,0,0,0.86353715,0.87240388,1.8192624)"
     inkscape:transform-center-x="0.39163373"
     inkscape:transform-center-y="-0.055025598"
     inkscape:export-filename="../Desktop/kiri logo.png"
     inkscape:export-xdpi="96"
     inkscape:export-ydpi="96" /></svg>
